<?xml version="1.0" encoding="utf-8"?>
<svg version="1.1"
	 xmlns:svg="http://www.w3.org/2000/svg"
	 xmlns="http://www.w3.org/2000/svg" x="0px" y="0px" width="400px" height="200px"
	 viewBox="0 0 400 200" xml:space="preserve">
<path id="path2180" d="M74.901,199.945c-2.172-0.82-14.038-0.907-13.743-0.639c-0.241-0.22,2.035-4.176,1.223-3.946
	c-2.933,0.844-5.96,2.029-8.891,2.829c0.107,0.026,4.093-4.731,4.013-4.805c0.521-0.083-8.313,2.44-8.313,3.151
	c0.043-13.803,30.493-14.727,35.949-23.165c4.628,0,22.558-30.748,23.88-35.825c5.119-4.965,8.409-37.479-1.361-26.545
	c0.87-1.778-23.125,8.956-21.373,8.956c-0.082,0-0.769-2.725-1.323-1.551c-0.244,0.514,0.006,2.839-0.852,2.846
	c-0.153-0.545-0.178-1.096-0.075-1.652c0.038,0.009-3.605,3.873-4.321,3.997c2.52-0.436-3.679-3.313-2.825-2.746
	c1.182-0.125,1.816,3.167,1.428,3.303c-0.723,0.254-0.172-2.316-1.353-1.907c0.017,0.705-0.038,1.404-0.163,2.098
	c-0.456,0.111-2.185-2.816-2.492-3.043c-0.142,0.129,1.504,5.137,1.117,5.137c-1.479,0-0.068-2.647-1.909-2.125
	c-0.564,0.196,1.074,3.051,0.229,3.051c-0.756,0-1.119-2.777-1.831-2.777c-1.307,0,0.963,3.829,0.911,3.645
	c-0.118,0.261-0.274,0.496-0.469,0.706c-0.289-0.477-0.661-0.877-1.117-1.203c-0.15,0,0.544,3.61-1.111,3.61
	c-0.67,0-0.013-2.482-0.748-2.228c-0.363,1.052-0.426,2.126-0.189,3.223c0.232-0.176-1.026-2.45-2.273-2.699
	c0.26,0.935,0.741,4.721-0.527,5.439c-0.534,0.298-0.787-1.448-0.896-1.187c-1.323-0.503-0.084,3.145-1.822,3.145
	c-1.068-1.177-0.264-2.628-1.296,0.399c-0.19-0.411-0.333-0.837-0.43-1.279c-0.216,0.657-0.56,1.243-1.03,1.759
	c1.263,0-3.209-6.427-5.121-6.435c-3.127-0.027-5.937,0.147-9.407,0.269c-5.712,0.207-9.07,5.87-15.873,5.104
	c-5.8-0.64-7.897-9.677-7.584-9.677c1.694,0,2.562,3.703,2.233-0.95c0.668,1.359,1.76,2.149,3.276,2.369
	c-2.964,0.673,2.786-11.391,3.033-11.087c-4.166-2.299-9.946,7.784-10.29,8.29c0.948-1.387-18.787-4.864-16.81-7.792
	c-0.337,0.495,1.49-0.266,1.581-0.599c-0.261,0.942-4.784-1.445-5.112-1.763c-3.917-2.411,4.127-4.148,3.788-5.371
	c2.828-6.187,10.329-11.242,14.221-16.979c3.212-5.032,2.154-6.596-0.515-10.43c1.735-6.421,9.445-12.437,10.737-18.146
	c2.942-5.589,3.14-11.621,6.664-17.677c2.158-2.968,17.509,7.469,17.182,0.625c-0.2-7.454,8.955-9.811,13.403-5.763
	c5.65,2.402,5.602-3.076,10.969-4.927c5.353-4.333,16.375-12.094,22.758-12.094c7.813,0,15.82-12.59,22.509-12.59
	c-0.026,0,31.941-10.746,32.628-11.362c5.559-4.06,24.169,1.778,28.705,3.884c1.177,5.561,25.739,10.621,31.112,10.669
	c12.746,3.947,28.993-6.337,41.748-6.337c25.436,0,53.25-2.047,74.462,13.805c18.076,17.882,42.38,29.957,42.38,57.116
	c7.54,11.468,7.563,29.632,9.573,42.628c0.208,0.296,5.784,27.104,5.626,27.336c0.296,10.783,22.692,24.923,5.406,34.758
	c-2.959,1.538-14.507,10.34-14.507,8.41c0,0.973-27.324-2.02-27.459-0.593c0.057-0.077,2.992-1.938,2.452-2.864
	c-0.248-0.423-4.674,1.627-4.696,1.731c0.615-1.647,2.634-2.799,2.618-4.546c-2.95-0.213-2.558,2.916-4.39,2.916
	c-0.517-3.116,7.872-9.191,9.884-10.888c-1.002,0.845-1.863,2.048-2.922,2.874c6.39-4.979,27.58-5.426,11.169-13.063
	c-6.973-3.193-17.846-3.248-23.271-5.6c-6.379-1.359-15.021-18.149-17.468-16.523c-5.116,1.12-19.012,17.531-22.287,16.155
	c-2.334-0.965-23.164,28.22-21.807,28.626c0,2.777-47.97,3.699-47.97,1.933c2.423-4.868-3.591-0.297-3.965-0.829
	c1.589-1.266,1.661-2.325,0.215-3.177c0.455-0.667-2.358,3.427-2.864,2.705c0.106-1.071,0.629-1.987,1.567-2.75
	c-1.761,0.085-3.185,0.779-4.271,2.084c-0.069-0.309,2.562-4.046,1.34-4.046c-0.584,0.83-1.247,1.584-1.99,2.263
	c-6.896-3.894,33.157-14.853,31.56-12.289c2.646-4.184,0.644-7.106,0.704-12.093c0.127-12.364-0.14-22.771-0.14-33.272
	c0-1.956-5.588,0.274-5.044,1.564c0.153-0.796,0.219-1.601,0.195-2.415c-0.115,0.04-2.028,2.152-2.124,2.08
	c0.645-1.078,0.474-1.77-0.512-2.073c-0.526-0.189-0.889,2.53-1.403,2.743c-1.176,0.483,0.29-1.968-0.308-2.104
	c-0.716,0.535-1.271,1.201-1.667,1.998c-0.296-0.703-0.262-1.422,0.102-2.155c-7.417,0.528-16.616-2.288-26.067-2.288
	c-1.324,0,7.857,23.456,8.371,23.164c0.462-0.263,3.18,17.358-2.701,20.299c-1.607,1.383-8.598,19.766-14.682,14.334
	c-3.303-2.964-29.469,1.279-29.469,1.854c0-1.756-2.298-1.36-2.646-0.769c1.57-0.244,2.673-0.985,3.311-2.225
	c-0.509-0.748-4.627,1.907-4.627,1.168c0-0.431,3.857-3.848,3.861-3.852c0-1.213-3.665,1.922-4.003,1.529
	c2.265-4.266,7.783-10.908,13.231-11.472c3.907-0.394,16.545-3.953,7.132-8.104c-3.185-1.623-20.019-15.049-21.083-18.841
	c-1.963-6.712-12.608-12.495-14.074-1.765c-0.907,6.731-10.393,10.824-13.27,15.756c-2.755,5.511-32.11,21.676-31.361,24.083
	C109.835,196.267,91.198,195.171,74.901,199.945z"/>
</svg>
